<?xml version="1.0" standalone="no"?>
<!DOCTYPE svg PUBLIC "-//W3C//DTD SVG 20010904//EN"
 "http://www.w3.org/TR/2001/REC-SVG-20010904/DTD/svg10.dtd">
<svg version="1.0" xmlns="http://www.w3.org/2000/svg"
 width="180.000000pt" height="127.000000pt" viewBox="0 0 180.000000 127.000000"
 preserveAspectRatio="xMidYMid meet">
<g transform="translate(0.000000,127.000000) scale(0.100000,-0.100000)"
fill="#ff0000" stroke="none">
<path d="M486 1259 c-416 -19 -450 -51 -478 -446 -18 -266 7 -567 54 -658 32
-60 89 -97 178 -114 119 -23 644 -35 963 -23 338 13 421 26 477 70 75 61 95
128 112 379 12 189 0 466 -25 574 -28 116 -83 171 -193 194 -144 30 -694 42
-1088 24z m497 -499 c108 -63 197 -117 197 -120 0 -3 -89 -57 -197 -120 -109
-63 -213 -123 -230 -133 l-33 -19 0 272 0 272 33 -19 c17 -11 121 -70 230
-133z"/>
</g>
</svg>
